<?xml version="1.0" standalone="no"?>
<!DOCTYPE svg PUBLIC "-//W3C//DTD SVG 20010904//EN"
 "http://www.w3.org/TR/2001/REC-SVG-20010904/DTD/svg10.dtd">
<svg version="1.0" xmlns="http://www.w3.org/2000/svg"
 width="256.000000pt" height="256.000000pt" viewBox="0 0 256.000000 256.000000"
 preserveAspectRatio="xMidYMid meet">
<metadata>
Created by potrace 1.11, written by Peter Selinger 2001-2013
</metadata>
<g transform="translate(0.000000,256.000000) scale(0.100000,-0.100000)"
fill="#000000" stroke="none">
<path d="M1394 2430 c-144 -38 -214 -89 -272 -199 -26 -49 -38 -80 -59 -166
-3 -11 -7 -69 -8 -130 -2 -89 -6 -111 -18 -113 -8 -2 -18 5 -21 16 -11 34
-103 119 -159 146 -59 29 -99 29 -150 -2 -30 -18 -40 -32 -79 -117 -13 -27
-47 -73 -76 -102 -71 -69 -79 -113 -33 -165 l31 -36 -123 -72 c-165 -98 -187
-116 -187 -147 0 -14 15 -50 34 -81 19 -32 47 -82 62 -112 20 -38 36 -56 51
-58 18 -3 42 -42 48 -82 0 -3 7 -16 15 -30 7 -14 13 -27 13 -30 0 -5 0 -7 17
-61 12 -40 16 -60 30 -134 18 -100 22 -132 25 -236 2 -59 6 -116 9 -127 8 -26
56 -45 116 -48 27 -1 53 -5 59 -8 6 -4 11 -3 11 2 0 11 32 11 41 -1 3 -4 17
-4 30 1 35 12 54 9 51 -10 -1 -10 6 -19 19 -23 22 -7 183 -10 209 -4 8 2 14
-2 12 -9 -1 -9 2 -11 10 -6 7 5 33 9 58 10 65 3 80 6 80 16 0 5 4 6 10 3 10
-6 24 -10 81 -19 19 -3 57 -10 84 -16 28 -6 66 -13 85 -16 19 -3 56 -15 82
-28 27 -13 45 -20 42 -15 -5 8 12 13 43 12 7 -1 10 3 7 8 -6 11 27 42 71 66
17 9 35 23 41 31 6 8 23 15 38 15 16 0 23 3 16 7 -15 9 36 43 53 34 7 -4 9 -4
5 1 -4 4 15 25 41 46 49 39 68 49 55 27 -4 -7 -3 -8 5 -4 6 4 9 11 6 16 -12
19 115 121 166 133 61 15 92 74 57 111 -10 11 -19 26 -19 33 -2 15 -6 32 -9
36 -2 3 -7 22 -15 60 -4 22 -3 27 7 21 9 -5 8 -2 -2 10 -14 18 -17 27 -22 81
-2 17 -6 32 -10 35 -4 3 -8 29 -10 58 -2 28 -6 52 -10 52 -5 0 -8 7 -8 16 0 8
5 12 11 8 6 -3 3 5 -6 20 -10 14 -15 26 -11 26 3 0 1 11 -4 24 -6 16 -5 28 3
36 9 10 9 11 0 6 -13 -7 -19 24 -15 82 0 12 -3 20 -8 17 -5 -3 -8 10 -6 30 1
19 0 35 -3 35 -4 0 -7 14 -7 31 -1 22 2 29 13 25 8 -4 11 -1 7 5 -4 6 0 15 7
20 10 6 14 31 14 81 2 144 -25 193 -106 191 -25 -1 -36 3 -32 10 4 6 1 7 -8 1
-14 -9 -63 -13 -179 -15 -107 -2 -109 -2 -80 18 14 9 45 34 70 56 64 56 132
87 198 92 64 5 105 -2 96 -17 -3 -5 3 -4 13 3 20 12 20 13 -4 123 -13 61 -30
117 -38 125 -19 20 -149 17 -198 -3 -61 -27 -114 -86 -157 -180 -23 -47 -45
-88 -50 -91 -13 -8 -84 30 -117 63 -16 15 -42 48 -58 74 -16 26 -40 52 -52 59
-12 7 -20 17 -16 22 4 6 1 7 -7 2 -8 -5 -29 -10 -48 -11 -19 -1 -61 -16 -94
-33 l-59 -30 31 39 c18 22 35 40 39 40 4 0 17 9 29 21 26 23 134 79 155 79 7
0 17 3 21 7 11 11 108 13 127 2 10 -5 23 -4 33 4 16 12 12 19 -42 72 -32 33
-73 81 -91 108 -18 26 -33 47 -34 46 -1 0 -34 -8 -73 -19z m-88 -594 c24 -34
7 -47 -57 -43 -33 2 -60 8 -60 13 -1 14 64 53 85 50 10 -2 25 -11 32 -20z
m-474 -89 l30 -12 -28 -15 c-16 -8 -41 -22 -56 -32 -34 -23 -44 -23 -62 5 -24
35 -27 75 -8 79 21 5 82 -8 124 -25z"/>
<path d="M1530 2179 c0 -5 5 -7 10 -4 6 3 10 8 10 11 0 2 -4 4 -10 4 -5 0 -10
-5 -10 -11z"/>
<path d="M1427 2159 c7 -7 15 -10 18 -7 3 3 -2 9 -12 12 -14 6 -15 5 -6 -5z"/>
<path d="M1590 2117 c0 -2 6 -10 14 -16 11 -9 16 -9 22 1 4 7 4 10 -1 6 -4 -4
-14 -3 -22 3 -7 6 -13 9 -13 6z"/>
<path d="M1566 2082 c-3 -5 1 -9 9 -9 8 0 12 4 9 9 -3 4 -7 8 -9 8 -2 0 -6 -4
-9 -8z"/>
<path d="M1974 1876 c1 -8 5 -18 8 -22 4 -3 5 1 4 10 -1 8 -5 18 -8 22 -4 3
-5 -1 -4 -10z"/>
<path d="M2151 1793 c7 -12 15 -20 18 -17 3 2 -3 12 -13 22 -17 16 -18 16 -5
-5z"/>
<path d="M2030 1797 c0 -2 6 -10 14 -16 11 -9 16 -9 22 1 4 7 4 10 -1 6 -4 -4
-14 -3 -22 3 -7 6 -13 9 -13 6z"/>
<path d="M2105 1780 c-3 -6 1 -7 9 -4 18 7 21 14 7 14 -6 0 -13 -4 -16 -10z"/>
<path d="M2176 1402 c-3 -5 1 -9 9 -9 8 0 12 4 9 9 -3 4 -7 8 -9 8 -2 0 -6 -4
-9 -8z"/>
<path d="M2133 1295 c0 -8 4 -12 9 -9 5 3 6 10 3 15 -9 13 -12 11 -12 -6z"/>
<path d="M2095 540 c-3 -5 -1 -10 4 -10 6 0 11 5 11 10 0 6 -2 10 -4 10 -3 0
-8 -4 -11 -10z"/>
<path d="M2130 539 c0 -5 5 -7 10 -4 6 3 10 8 10 11 0 2 -4 4 -10 4 -5 0 -10
-5 -10 -11z"/>
<path d="M2215 540 c-3 -5 -1 -10 4 -10 6 0 11 5 11 10 0 6 -2 10 -4 10 -3 0
-8 -4 -11 -10z"/>
<path d="M2255 520 c-3 -5 -1 -10 4 -10 6 0 11 5 11 10 0 6 -2 10 -4 10 -3 0
-8 -4 -11 -10z"/>
<path d="M2095 500 c-3 -5 -1 -10 4 -10 6 0 11 5 11 10 0 6 -2 10 -4 10 -3 0
-8 -4 -11 -10z"/>
<path d="M2130 500 c0 -5 5 -10 11 -10 5 0 7 5 4 10 -3 6 -8 10 -11 10 -2 0
-4 -4 -4 -10z"/>
<path d="M2170 499 c0 -5 5 -7 10 -4 6 3 10 8 10 11 0 2 -4 4 -10 4 -5 0 -10
-5 -10 -11z"/>
<path d="M2216 502 c-3 -5 1 -9 9 -9 8 0 12 4 9 9 -3 4 -7 8 -9 8 -2 0 -6 -4
-9 -8z"/>
<path d="M2077 453 c-10 -9 -9 -23 1 -23 5 0 9 7 9 15 0 17 -1 18 -10 8z"/>
<path d="M1996 433 c-6 -14 -5 -15 5 -6 7 7 10 15 7 18 -3 3 -9 -2 -12 -12z"/>
<path d="M2114 436 c1 -8 5 -18 8 -22 4 -3 5 1 4 10 -1 8 -5 18 -8 22 -4 3 -5
-1 -4 -10z"/>
<path d="M1935 421 c-3 -5 -2 -12 3 -15 5 -3 9 1 9 9 0 17 -3 19 -12 6z"/>
<path d="M1930 380 c0 -5 5 -10 11 -10 5 0 7 5 4 10 -3 6 -8 10 -11 10 -2 0
-4 -4 -4 -10z"/>
<path d="M2010 380 c0 -5 5 -10 11 -10 5 0 7 5 4 10 -3 6 -8 10 -11 10 -2 0
-4 -4 -4 -10z"/>
<path d="M1935 340 c3 -5 8 -10 11 -10 2 0 4 5 4 10 0 6 -5 10 -11 10 -5 0 -7
-4 -4 -10z"/>
<path d="M1975 340 c3 -5 8 -10 11 -10 2 0 4 5 4 10 0 6 -5 10 -11 10 -5 0 -7
-4 -4 -10z"/>
<path d="M1830 321 c0 -6 4 -13 10 -16 6 -3 7 1 4 9 -7 18 -14 21 -14 7z"/>
<path d="M695 311 c-3 -5 -2 -12 3 -15 5 -3 9 1 9 9 0 17 -3 19 -12 6z"/>
<path d="M1975 301 c-3 -5 -2 -12 3 -15 5 -3 9 1 9 9 0 17 -3 19 -12 6z"/>
<path d="M826 278 c3 -5 10 -6 15 -3 13 9 11 12 -6 12 -8 0 -12 -4 -9 -9z"/>
<path d="M1755 280 c3 -5 8 -10 11 -10 2 0 4 5 4 10 0 6 -5 10 -11 10 -5 0 -7
-4 -4 -10z"/>
<path d="M1830 281 c0 -6 4 -13 10 -16 6 -3 7 1 4 9 -7 18 -14 21 -14 7z"/>
<path d="M1015 260 c-3 -5 -1 -10 4 -10 6 0 11 5 11 10 0 6 -2 10 -4 10 -3 0
-8 -4 -11 -10z"/>
<path d="M1050 260 c0 -5 5 -10 11 -10 5 0 7 5 4 10 -3 6 -8 10 -11 10 -2 0
-4 -4 -4 -10z"/>
<path d="M1095 260 c-3 -5 -1 -10 4 -10 6 0 11 5 11 10 0 6 -2 10 -4 10 -3 0
-8 -4 -11 -10z"/>
<path d="M1295 260 c-3 -5 -1 -10 4 -10 6 0 11 5 11 10 0 6 -2 10 -4 10 -3 0
-8 -4 -11 -10z"/>
<path d="M1330 259 c0 -5 5 -7 10 -4 6 3 10 8 10 11 0 2 -4 4 -10 4 -5 0 -10
-5 -10 -11z"/>
<path d="M979 248 c-5 -18 -6 -38 -1 -34 7 8 12 36 6 36 -2 0 -4 -1 -5 -2z"/>
<path d="M1399 233 c-13 -16 -12 -17 4 -4 16 13 21 21 13 21 -2 0 -10 -8 -17
-17z"/>
<path d="M1790 240 c0 -5 5 -10 11 -10 5 0 7 5 4 10 -3 6 -8 10 -11 10 -2 0
-4 -4 -4 -10z"/>
<path d="M1836 238 c3 -5 10 -6 15 -3 13 9 11 12 -6 12 -8 0 -12 -4 -9 -9z"/>
<path d="M1010 220 c0 -5 5 -10 11 -10 5 0 7 5 4 10 -3 6 -8 10 -11 10 -2 0
-4 -4 -4 -10z"/>
<path d="M1055 220 c-3 -5 -1 -10 4 -10 6 0 11 5 11 10 0 6 -2 10 -4 10 -3 0
-8 -4 -11 -10z"/>
<path d="M1090 219 c0 -5 5 -7 10 -4 6 3 10 8 10 11 0 2 -4 4 -10 4 -5 0 -10
-5 -10 -11z"/>
<path d="M1135 220 c3 -5 8 -10 11 -10 2 0 4 5 4 10 0 6 -5 10 -11 10 -5 0 -7
-4 -4 -10z"/>
<path d="M1170 220 c0 -5 5 -10 11 -10 5 0 7 5 4 10 -3 6 -8 10 -11 10 -2 0
-4 -4 -4 -10z"/>
<path d="M1290 219 c0 -5 5 -7 10 -4 6 3 10 8 10 11 0 2 -4 4 -10 4 -5 0 -10
-5 -10 -11z"/>
<path d="M1695 220 c-3 -5 -1 -10 4 -10 6 0 11 5 11 10 0 6 -2 10 -4 10 -3 0
-8 -4 -11 -10z"/>
<path d="M1735 220 c-3 -5 -1 -10 4 -10 6 0 11 5 11 10 0 6 -2 10 -4 10 -3 0
-8 -4 -11 -10z"/>
<path d="M1235 200 c3 -5 8 -10 11 -10 2 0 4 5 4 10 0 6 -5 10 -11 10 -5 0 -7
-4 -4 -10z"/>
<path d="M1790 206 c0 -2 7 -7 16 -10 8 -3 12 -2 9 4 -6 10 -25 14 -25 6z"/>
<path d="M1496 178 c3 -4 11 -5 19 -1 21 7 19 12 -4 10 -11 0 -18 -5 -15 -9z"/>
<path d="M1615 180 c-3 -5 -1 -10 4 -10 6 0 11 5 11 10 0 6 -2 10 -4 10 -3 0
-8 -4 -11 -10z"/>
<path d="M1735 180 c-3 -5 -1 -10 4 -10 6 0 11 5 11 10 0 6 -2 10 -4 10 -3 0
-8 -4 -11 -10z"/>
<path d="M1633 135 c0 -8 4 -12 9 -9 5 3 6 10 3 15 -9 13 -12 11 -12 -6z"/>
</g>
</svg>
